<?xml version="1.0" encoding="UTF-8" standalone="no"?>
<svg
   width="234.3"
   height="156.914"
   viewBox="0 0 177.5 118.87425"
   fill="none"
   version="1.1"
   id="svg21"
   sodipodi:docname="logo.svg"
   inkscape:version="1.4 (86a8ad7, 2024-10-11)"
   xmlns:inkscape="http://www.inkscape.org/namespaces/inkscape"
   xmlns:sodipodi="http://sodipodi.sourceforge.net/DTD/sodipodi-0.dtd"
   xmlns="http://www.w3.org/2000/svg"
   xmlns:svg="http://www.w3.org/2000/svg">
  <defs
     id="defs21" />
  <sodipodi:namedview
     id="namedview21"
     pagecolor="#505050"
     bordercolor="#ffffff"
     borderopacity="1"
     inkscape:showpageshadow="0"
     inkscape:pageopacity="0"
     inkscape:pagecheckerboard="1"
     inkscape:deskcolor="#505050"
     inkscape:zoom="3.2386364"
     inkscape:cx="118.25965"
     inkscape:cy="61.908772"
     inkscape:window-width="1920"
     inkscape:window-height="1057"
     inkscape:window-x="1912"
     inkscape:window-y="-8"
     inkscape:window-maximized="1"
     inkscape:current-layer="svg21" />
  <g
     id="g21"
     transform="translate(-11.25,-51.25)">
    <g
       fill="none"
       stroke="#f0eae1"
       stroke-width="5.5"
       stroke-linecap="round"
       id="g2">
      <line
         x1="86"
         y1="62"
         x2="62"
         y2="62"
         id="line1" />
      <line
         x1="114"
         y1="62"
         x2="138"
         y2="62"
         id="line2" />
    </g>
    <g
       fill="none"
       stroke="#f0eae1"
       stroke-width="3.4"
       id="g4">
      <line
         x1="62"
         y1="62"
         x2="62"
         y2="56"
         id="line3" />
      <line
         x1="138"
         y1="62"
         x2="138"
         y2="56"
         id="line4" />
    </g>
    <g
       fill="none"
       stroke="#f0eae1"
       stroke-width="5.5"
       stroke-linecap="round"
       id="g6">
      <line
         x1="40"
         y1="54"
         x2="84"
         y2="54"
         id="line5" />
      <line
         x1="116"
         y1="54"
         x2="160"
         y2="54"
         id="line6" />
    </g>
    <rect
       x="86"
       y="54"
       width="28"
       height="16"
       rx="5"
       fill="#db551d"
       id="rect6" />
  </g>
  <g
     fill="#f0eae1"
     id="g12"
     transform="translate(-4.79,-55.795456)">
    <g
       transform="matrix(0.6,0,0,0.6,-24,56)"
       id="g7">
      <path
         d="m 100,96 12,26 h -6 l 12,28 H 82 l 12,-28 h -6 z"
         id="path6" />
    </g>
    <g
       transform="matrix(0.85,0,0,0.85,-23,18.5)"
       id="g8">
      <path
         d="m 100,96 12,26 h -6 l 12,28 H 82 l 12,-28 h -6 z"
         id="path7" />
    </g>
    <g
       transform="translate(-10,-4)"
       id="g9">
      <path
         d="m 100,96 12,26 h -6 l 12,28 H 82 l 12,-28 h -6 z"
         id="path8" />
    </g>
    <g
       transform="matrix(0.78,0,0,0.78,42,29)"
       id="g10">
      <path
         d="m 100,96 12,26 h -6 l 12,28 H 82 l 12,-28 h -6 z"
         id="path9" />
    </g>
    <g
       transform="matrix(0.66,0,0,0.66,84,47)"
       id="g11">
      <path
         d="m 100,96 12,26 h -6 l 12,28 H 82 l 12,-28 h -6 z"
         id="path10" />
    </g>
  </g>
  <line
     x1="2.75"
     y1="92.689392"
     x2="174.75"
     y2="92.689392"
     stroke="#f0eae1"
     stroke-width="5.5"
     stroke-linecap="round"
     id="line12" />
  <g
     id="g23"
     transform="translate(-11.25,-55.795456)">
    <g
       id="g22">
      <g
         stroke="#f0eae1"
         stroke-width="2.4"
         opacity="0.55"
         id="g20">
        <line
           x1="30"
           y1="158"
           x2="30"
           y2="166"
           id="line13" />
        <line
           x1="50"
           y1="158"
           x2="50"
           y2="166"
           id="line14" />
        <line
           x1="70"
           y1="158"
           x2="70"
           y2="166"
           id="line15" />
        <line
           x1="90"
           y1="158"
           x2="90"
           y2="166"
           id="line16" />
        <line
           x1="110"
           y1="158"
           x2="110"
           y2="166"
           id="line17" />
        <line
           x1="130"
           y1="158"
           x2="130"
           y2="166"
           id="line18" />
        <line
           x1="150"
           y1="158"
           x2="150"
           y2="166"
           id="line19" />
        <line
           x1="170"
           y1="158"
           x2="170"
           y2="166"
           id="line20" />
      </g>
    </g>
  </g>
  <line
     x1="32.75"
     y1="117.17425"
     x2="144.75"
     y2="117.17425"
     stroke="#db551d"
     stroke-width="3.4"
     stroke-linecap="round"
     id="line21" />
</svg>
